<svg version="1.0" xmlns="http://www.w3.org/2000/svg"
 width="2170.000000pt" height="725.000000pt" viewBox="0 0 2170.000000 725.000000"
 preserveAspectRatio="xMidYMid meet">
<rect width="100%" height="100%" fill="#FFFFFF"/>
<g transform="translate(0.000000,725.000000) scale(0.100000,-0.100000)" fill="#0E87D3" stroke="none">
<path d="M4213 5790 c-670 -105 -1237 -523 -1544 -1140 -155 -311 -229 -690
-200 -1032 37 -457 206 -860 500 -1197 64 -73 239 -231 257 -231 6 0 78 51
159 113 496 379 580 437 785 539 183 92 383 156 580 188 89 14 383 25 450 16
l55 -7 185 -356 c102 -195 186 -361 188 -367 3 -14 -126 -92 -248 -150 -233
-110 -460 -160 -720 -158 -255 1 -502 62 -742 183 -43 21 -83 39 -89 39 -14 0
-389 -212 -389 -220 0 -3 51 -33 113 -67 461 -252 1041 -318 1532 -175 626
183 1118 647 1304 1232 32 101 68 284 80 404 14 137 14 133 -3 133 -9 0 -22
-33 -39 -97 -56 -213 -163 -449 -286 -631 -70 -104 -119 -165 -126 -158 -2 2
-129 258 -283 569 -624 1261 -843 1696 -865 1713 -54 42 -464 50 -545 10 -35
-17 -52 -47 -342 -628 -168 -336 -408 -823 -535 -1082 -126 -260 -233 -473
-237 -473 -15 0 -82 107 -147 233 -133 262 -191 500 -191 775 1 270 42 470
145 702 195 441 568 772 1042 924 382 122 856 105 1236 -45 569 -225 960 -644
1131 -1208 37 -121 62 -148 51 -55 -35 304 -153 621 -328 884 -242 364 -671
664 -1108 775 -191 49 -255 57 -484 61 -181 3 -242 0 -342 -16z m827 -2341 c0
-4 -57 -7 -127 -7 -156 0 -260 -13 -422 -52 -156 -38 -255 -72 -353 -121 -43
-22 -78 -35 -78 -30 0 5 69 150 153 322 85 173 205 421 267 552 l114 239 223
-449 c122 -246 222 -451 223 -454z"/>
</g>
<g transform="translate(0.000000,725.000000) scale(0.100000,-0.100000)" fill="#09171D" stroke="none">
<path d="M16966 5145 c-138 -29 -299 -95 -405 -168 -156 -107 -292 -286 -371
-486 -85 -218 -91 -526 -13 -760 116 -351 400 -602 753 -666 225 -41 443 -22
632 55 182 74 339 212 446 390 34 57 59 107 55 111 -11 9 -350 149 -362 149
-6 0 -26 -24 -44 -52 -165 -259 -489 -349 -766 -216 -136 66 -264 230 -307
393 -21 83 -29 245 -15 334 31 199 156 382 318 469 271 144 591 66 755 -184
23 -35 45 -64 49 -64 12 0 363 120 378 129 17 11 -9 71 -72 168 -118 183 -295
314 -512 379 -81 24 -108 27 -270 30 -127 2 -200 -1 -249 -11z"/>
<path d="M8078 5133 c-9 -2 -24 -23 -32 -46 -76 -208 -261 -694 -331 -872
-170 -432 -435 -1126 -435 -1141 0 -12 33 -14 232 -12 l233 3 32 90 c18 50 52
143 74 208 l42 117 411 -2 411 -3 53 -140 c29 -77 64 -170 78 -207 l26 -68
235 0 c219 0 235 1 231 18 -3 9 -80 208 -171 442 -91 234 -204 524 -250 645
-298 770 -369 951 -378 960 -10 10 -428 18 -461 8z m406 -1021 c53 -139 96
-254 96 -257 0 -3 -126 -5 -279 -5 l-279 0 30 78 c16 42 74 200 129 350 55
150 105 285 111 300 9 25 13 19 53 -93 23 -66 86 -234 139 -373z"/>
<path d="M9582 5132 c-10 -7 -12 -221 -10 -1038 l3 -1029 638 -3 637 -2 0 195
0 195 -430 0 -430 0 -2 843 -3 842 -195 2 c-107 2 -201 -1 -208 -5z"/>
<path d="M10550 5134 c0 -3 164 -279 364 -613 200 -333 371 -620 380 -638 14
-28 16 -80 16 -428 l0 -395 208 2 207 3 3 397 2 397 164 268 c89 147 254 419
366 603 112 184 211 347 221 362 11 14 19 31 19 37 0 8 -73 11 -239 11 -198 0
-242 -3 -254 -15 -15 -14 -122 -197 -362 -617 -65 -115 -121 -208 -124 -208
-3 1 -109 183 -236 407 -126 223 -236 412 -243 419 -11 11 -63 14 -253 14
-131 0 -239 -3 -239 -6z"/>
<path d="M12667 5133 c-4 -3 -7 -89 -7 -190 l0 -183 295 0 295 0 2 -847 3
-848 210 0 210 0 5 845 5 845 303 3 302 2 -2 188 -3 187 -806 3 c-443 1 -809
-1 -812 -5z"/>
<path d="M14560 4100 l0 -1040 685 0 685 0 0 195 0 195 -475 0 -475 0 0 240 0
240 415 0 415 0 -2 183 -3 182 -412 3 -413 2 0 224 c0 224 0 224 23 230 12 3
221 6 464 6 l442 0 6 43 c3 23 5 107 3 187 l-3 145 -677 2 -678 3 0 -1040z"/>
<path d="M18295 5128 c-3 -7 -4 -474 -3 -1038 l3 -1025 205 0 205 0 3 433 2
432 440 0 440 0 2 -432 3 -433 208 -3 207 -2 -2 1037 -3 1038 -185 3 c-102 1
-194 0 -205 -2 -20 -5 -21 -13 -22 -258 0 -139 -1 -324 -2 -411 l-1 -157 -437
2 -438 3 -5 410 -5 410 -203 3 c-156 2 -204 0 -207 -10z"/>
<path d="M11059 2565 c-29 -16 -64 -79 -55 -101 8 -21 59 -17 74 6 15 25 28
25 85 0 34 -15 51 -18 71 -11 29 12 53 45 58 81 2 21 -2 26 -26 28 -20 3 -32
-3 -43 -17 l-14 -21 -47 25 c-53 29 -67 30 -103 10z"/>
<path d="M7394 2386 c-74 -34 -99 -74 -99 -158 0 -102 41 -145 176 -188 140
-43 172 -70 148 -123 -17 -38 -49 -50 -120 -45 -57 4 -65 8 -94 41 -18 20 -35
37 -39 37 -17 0 -86 -54 -86 -68 0 -28 84 -98 136 -112 61 -18 146 -18 199 0
114 38 165 149 116 256 -23 51 -60 74 -174 109 -105 33 -137 55 -137 95 0 88
144 99 211 17 16 -20 16 -20 63 12 l47 33 -24 31 c-13 18 -47 44 -77 60 -72
37 -171 38 -246 3z"/>
<path d="M8127 2390 c-136 -53 -218 -188 -204 -337 8 -82 34 -140 92 -202 149
-159 418 -113 508 87 40 88 45 163 18 252 -19 62 -31 82 -80 131 -44 44 -70
61 -111 73 -71 21 -163 20 -223 -4z m217 -128 c22 -15 50 -47 64 -72 20 -39
23 -55 19 -116 -5 -83 -30 -132 -86 -169 -47 -31 -98 -39 -149 -26 -89 25
-141 101 -142 209 0 101 46 170 131 198 58 18 115 10 163 -24z"/>
<path d="M10260 2401 c-87 -27 -165 -95 -204 -180 -16 -36 -21 -65 -21 -136 0
-78 4 -98 27 -146 46 -93 125 -158 215 -177 35 -7 38 -11 38 -42 0 -31 4 -35
30 -40 41 -7 48 -46 10 -56 -14 -3 -34 -4 -45 -1 -24 6 -48 -19 -32 -35 19
-19 95 -20 132 -1 67 34 60 113 -10 128 -48 11 -36 38 21 46 62 9 118 40 163
89 36 40 64 87 55 93 -2 2 -26 13 -54 25 l-50 21 -20 -27 c-71 -96 -174 -118
-268 -56 -116 77 -112 290 6 358 89 51 164 42 235 -30 l44 -43 54 24 55 24
-15 29 c-25 47 -104 111 -159 127 -53 16 -164 19 -207 6z"/>
<path d="M11044 2399 c-53 -15 -127 -72 -161 -122 -43 -64 -57 -116 -57 -203
2 -201 176 -350 368 -315 105 19 177 72 227 163 32 59 34 69 34 158 0 78 -4
104 -24 148 -32 70 -115 147 -183 167 -56 16 -155 18 -204 4z m186 -124 c115
-59 143 -237 53 -336 -90 -100 -244 -83 -305 34 -33 62 -32 166 2 225 50 89
161 123 250 77z"/>
<path d="M12399 2383 c-71 -36 -102 -92 -96 -171 6 -88 58 -137 181 -172 139
-40 166 -64 142 -125 -15 -38 -69 -58 -129 -48 -30 4 -53 17 -81 45 l-39 38
-43 -25 c-24 -14 -46 -30 -49 -35 -12 -19 75 -98 128 -116 174 -59 346 25 347
169 0 60 -23 110 -62 138 -16 12 -74 36 -129 54 -112 37 -139 55 -139 97 0 44
31 68 91 68 58 0 85 -11 116 -47 l21 -26 35 22 c61 37 63 45 22 89 -69 77
-213 97 -316 45z"/>
<path d="M14495 2398 c-102 -36 -152 -145 -111 -242 20 -49 62 -76 189 -121
123 -44 144 -63 126 -115 -26 -72 -155 -75 -216 -4 l-32 36 -45 -26 c-25 -14
-48 -31 -51 -36 -8 -14 60 -85 99 -104 120 -57 286 -31 342 53 51 78 37 196
-28 242 -17 12 -76 37 -131 55 -110 37 -137 55 -137 91 0 39 18 62 58 73 50
13 96 -1 137 -40 l31 -30 42 30 c23 16 42 33 42 36 0 21 -51 70 -94 90 -56 26
-164 32 -221 12z"/>
<path d="M17762 2393 c-23 -8 -66 -37 -96 -63 -192 -176 -125 -492 118 -565
36 -11 40 -15 40 -46 1 -29 5 -34 28 -37 30 -4 44 -28 26 -49 -7 -9 -26 -13
-52 -11 -35 3 -41 0 -41 -17 0 -15 10 -22 37 -29 80 -20 159 45 127 103 -8 14
-29 30 -47 36 -55 16 -39 30 63 54 27 7 65 21 83 33 36 22 115 115 110 130 -2
5 -26 19 -54 32 l-51 24 -42 -49 c-143 -166 -381 -5 -317 214 27 94 125 159
215 142 48 -9 97 -40 118 -76 10 -16 21 -29 25 -29 5 0 31 11 58 25 l50 25
-15 29 c-24 47 -103 110 -158 126 -64 19 -169 18 -225 -2z"/>
<path d="M18533 2389 c-67 -26 -132 -89 -168 -163 -24 -49 -29 -72 -29 -140
-1 -69 3 -90 28 -144 55 -119 161 -186 296 -186 121 0 226 67 282 181 28 58
32 75 32 147 0 66 -5 91 -26 137 -32 69 -94 134 -157 162 -68 30 -190 34 -258
6z m170 -100 c60 -16 114 -72 133 -136 57 -194 -139 -356 -294 -243 -54 39
-77 89 -77 175 0 107 49 177 143 205 38 12 52 11 95 -1z"/>
<path d="M19274 2386 c-74 -34 -99 -74 -99 -158 0 -102 41 -145 176 -188 82
-25 130 -47 141 -64 15 -22 8 -63 -14 -83 -51 -46 -143 -35 -196 22 l-33 36
-44 -26 c-24 -14 -47 -30 -50 -35 -3 -5 16 -31 42 -58 131 -131 382 -90 424
68 15 58 6 111 -28 150 -31 38 -63 55 -172 91 -100 34 -121 51 -121 95 0 42
30 64 87 64 53 0 85 -12 115 -44 l23 -25 42 27 c24 15 43 32 43 38 0 24 -46
68 -94 90 -71 33 -171 33 -242 0z"/>
<path d="M8760 2080 l0 -320 190 0 190 0 2 33 c1 17 2 43 2 57 l1 25 -130 5
-130 5 -3 258 -2 257 -60 0 -60 0 0 -320z"/>
<path d="M9310 2173 c0 -218 1 -230 24 -278 41 -89 117 -137 221 -138 120 -3
203 41 247 130 22 45 23 60 26 281 l4 232 -61 0 -61 0 0 -192 c0 -213 -8 -259
-51 -299 -57 -53 -153 -44 -196 20 -22 33 -23 41 -23 252 l0 219 -65 0 -65 0
0 -227z"/>
<path d="M11670 2080 l0 -320 204 0 204 0 4 56 c1 31 1 58 -1 60 -2 2 -69 4
-148 4 l-143 0 0 75 0 75 130 0 130 0 0 55 0 54 -127 3 -128 3 -3 73 -3 72
146 0 145 0 0 55 0 55 -205 0 -205 0 0 -320z"/>
<path d="M13352 2083 l3 -318 208 -3 207 -2 0 60 0 60 -145 0 -145 0 0 75 0
75 125 0 125 0 0 55 0 54 -122 3 -123 3 -3 73 -3 72 141 0 140 0 0 55 0 55
-205 0 -205 0 2 -317z"/>
<path d="M15050 2080 l0 -320 210 0 210 0 0 60 0 60 -150 0 -150 0 0 75 0 75
130 0 130 0 0 55 0 55 -130 0 -130 0 0 75 0 75 145 0 145 0 0 55 0 55 -205 0
-205 0 0 -320z"/>
<path d="M15700 2080 l0 -320 60 0 60 0 0 111 0 110 52 -3 51 -3 72 -105 73
-105 72 -3 c58 -2 71 0 67 11 -3 7 -37 59 -76 114 -39 56 -71 103 -71 106 0 2
18 16 40 31 103 68 116 218 26 311 -54 57 -89 65 -273 65 l-153 0 0 -320z
m309 195 c57 -29 64 -110 15 -156 -22 -21 -37 -24 -115 -27 l-89 -4 0 101 0
101 80 0 c51 0 91 -5 109 -15z"/>
<path d="M16370 2397 c0 -5 80 -215 180 -474 l63 -163 63 0 62 0 48 123 c26
67 74 190 106 272 33 83 69 171 79 198 l19 47 -68 0 -67 0 -62 -168 c-34 -92
-75 -200 -90 -241 -15 -41 -28 -71 -30 -65 -2 5 -41 113 -87 239 l-84 230 -66
3 c-36 2 -66 1 -66 -1z"/>
<path d="M17210 2080 l0 -320 60 0 60 0 0 320 0 320 -60 0 -60 0 0 -320z"/>
</g>
</svg>
