<?xml version="1.0" standalone="no"?>
<!DOCTYPE svg PUBLIC "-//W3C//DTD SVG 20010904//EN"
 "http://www.w3.org/TR/2001/REC-SVG-20010904/DTD/svg10.dtd">
<svg version="1.0" xmlns="http://www.w3.org/2000/svg"
 width="1254.000000pt" height="1254.000000pt" viewBox="0 0 1254.000000 1254.000000"
 preserveAspectRatio="xMidYMid meet">

<g transform="translate(0.000000,1254.000000) scale(0.100000,-0.100000)"
fill="#000000" stroke="none">
<path d="M6050 12060 c-1071 -71 -2069 -419 -2922 -1017 -457 -321 -884 -729
-1233 -1178 -317 -408 -622 -960 -808 -1461 -260 -700 -387 -1512 -348 -2229
45 -820 230 -1541 576 -2240 267 -540 553 -953 967 -1396 154 -165 439 -425
599 -547 14 -11 33 3 138 102 524 495 1067 940 1561 1278 859 587 1674 930
2533 1068 361 57 802 83 1127 65 l135 -7 233 -456 c127 -252 290 -569 360
-707 70 -137 210 -410 310 -605 l181 -355 -112 -72 c-684 -436 -1368 -673
-2147 -745 -175 -16 -657 -16 -830 1 -602 56 -1205 231 -1739 507 -79 41 -148
74 -152 74 -5 0 -122 -66 -261 -147 -357 -207 -623 -360 -695 -400 -35 -19
-65 -38 -68 -43 -9 -15 330 -214 570 -335 275 -139 475 -223 725 -306 585
-193 1120 -279 1740 -279 476 -1 847 44 1295 155 836 207 1650 654 2274 1250
896 856 1423 1866 1625 3115 32 197 86 824 72 838 -2 1 -11 -37 -20 -85 -43
-219 -163 -648 -250 -895 -183 -518 -432 -1008 -719 -1418 -84 -120 -252 -336
-278 -357 -17 -13 30 -110 -899 1867 -278 590 -877 1874 -955 2045 -122 267
-577 1223 -952 2000 -75 154 -157 326 -184 382 -34 71 -60 111 -86 132 -77 63
-57 62 -844 59 -711 -3 -714 -3 -754 -25 -75 -40 -108 -88 -213 -308 -103
-218 -550 -1151 -867 -1810 -370 -770 -889 -1845 -1120 -2320 -128 -263 -246
-506 -365 -750 -309 -635 -513 -1051 -519 -1058 -13 -13 -165 217 -292 439
-413 725 -649 1630 -649 2494 0 547 127 1186 347 1745 64 161 243 519 341 682
587 972 1516 1700 2623 2058 783 252 1602 315 2404 184 897 -147 1742 -537
2465 -1137 149 -124 470 -445 591 -592 465 -563 806 -1196 1059 -1970 42 -129
90 -281 105 -337 16 -57 29 -102 30 -100 6 7 -17 393 -30 507 -129 1124 -661
2221 -1478 3049 -887 898 -2071 1449 -3387 1576 -199 19 -624 27 -810 15z
m662 -4265 c55 -110 124 -245 153 -300 29 -55 143 -280 255 -500 112 -220 317
-623 456 -896 139 -273 254 -502 256 -510 2 -10 -21 -15 -102 -21 -496 -35
-842 -86 -1262 -184 -449 -105 -813 -238 -1241 -452 -126 -63 -230 -112 -232
-110 -2 2 286 586 641 1298 355 712 713 1434 797 1603 135 276 153 307 165
290 7 -10 59 -108 114 -218z"/>
</g>
</svg>
